<mxfile host="app.diagrams.net" modified="2021-12-02T14:42:42.175Z" agent="5.0 (Windows NT 10.0; Win64; x64) AppleWebKit/537.36 (KHTML, like Gecko) Chrome/96.0.4664.45 Safari/537.36" etag="nf8ZE6uhPGhyVxigCXak" version="14.7.4" type="github">
  <diagram id="4dXcRYqvt67oj2lislC5" name="Page-1">
    <mxGraphModel dx="1564" dy="898" grid="1" gridSize="10" guides="1" tooltips="1" connect="1" arrows="1" fold="1" page="1" pageScale="1" pageWidth="827" pageHeight="1169" math="0" shadow="0">
      <root>
        <mxCell id="0" />
        <mxCell id="1" parent="0" />
        <mxCell id="Oo_7XJ8R2uxZgiFvvZZN-41" value="&lt;div style=&quot;text-align: justify; font-size: 17px;&quot;&gt;&lt;span style=&quot;font-size: 17px;&quot;&gt;1. Create service&lt;/span&gt;&lt;/div&gt;&lt;div style=&quot;text-align: justify; font-size: 17px;&quot;&gt;&lt;span style=&quot;font-size: 17px;&quot;&gt;2. Build service&lt;/span&gt;&lt;/div&gt;&lt;div style=&quot;text-align: justify; font-size: 17px;&quot;&gt;&lt;span style=&quot;font-size: 17px;&quot;&gt;3. Build image&lt;/span&gt;&lt;/div&gt;" style="rounded=1;whiteSpace=wrap;html=1;fontSize=17;" vertex="1" parent="1">
          <mxGeometry x="30" y="170" width="170" height="130" as="geometry" />
        </mxCell>
        <mxCell id="Oo_7XJ8R2uxZgiFvvZZN-2" value="DevOps" style="shape=umlActor;verticalLabelPosition=bottom;verticalAlign=top;html=1;outlineConnect=0;fontSize=17;" vertex="1" parent="1">
          <mxGeometry x="30" y="397" width="30" height="60" as="geometry" />
        </mxCell>
        <mxCell id="Oo_7XJ8R2uxZgiFvvZZN-10" value="" style="shape=flexArrow;endArrow=classic;html=1;fontSize=17;" edge="1" parent="1">
          <mxGeometry width="50" height="50" relative="1" as="geometry">
            <mxPoint x="100" y="120" as="sourcePoint" />
            <mxPoint x="250" y="120" as="targetPoint" />
          </mxGeometry>
        </mxCell>
        <mxCell id="Oo_7XJ8R2uxZgiFvvZZN-11" value="push image" style="text;html=1;strokeColor=none;fillColor=none;align=center;verticalAlign=middle;whiteSpace=wrap;rounded=0;fontSize=17;" vertex="1" parent="1">
          <mxGeometry x="130" y="90" width="90" height="20" as="geometry" />
        </mxCell>
        <mxCell id="Oo_7XJ8R2uxZgiFvvZZN-17" value="" style="aspect=fixed;html=1;points=[];align=center;image;fontSize=17;image=img/lib/mscae/Docker.svg;" vertex="1" parent="1">
          <mxGeometry x="260" y="80" width="121.95" height="100" as="geometry" />
        </mxCell>
        <mxCell id="Oo_7XJ8R2uxZgiFvvZZN-22" value="" style="edgeStyle=orthogonalEdgeStyle;rounded=0;orthogonalLoop=1;jettySize=auto;html=1;fontSize=17;" edge="1" parent="1" source="Oo_7XJ8R2uxZgiFvvZZN-20" target="Oo_7XJ8R2uxZgiFvvZZN-21">
          <mxGeometry relative="1" as="geometry" />
        </mxCell>
        <mxCell id="Oo_7XJ8R2uxZgiFvvZZN-20" value="" style="aspect=fixed;html=1;points=[];align=center;image;fontSize=17;image=img/lib/mscae/Kubernetes.svg;" vertex="1" parent="1">
          <mxGeometry x="230" y="350" width="135.41" height="130" as="geometry" />
        </mxCell>
        <mxCell id="Oo_7XJ8R2uxZgiFvvZZN-21" value="" style="whiteSpace=wrap;html=1;verticalAlign=top;labelBackgroundColor=white;fontSize=17;" vertex="1" parent="1">
          <mxGeometry x="470" y="276.25" width="290" height="277.5" as="geometry" />
        </mxCell>
        <mxCell id="Oo_7XJ8R2uxZgiFvvZZN-23" value="Clasters" style="text;html=1;strokeColor=none;fillColor=none;align=center;verticalAlign=middle;whiteSpace=wrap;rounded=0;fontSize=17;" vertex="1" parent="1">
          <mxGeometry x="560" y="300" width="40" height="20" as="geometry" />
        </mxCell>
        <mxCell id="Oo_7XJ8R2uxZgiFvvZZN-24" value="Dev" style="rounded=1;whiteSpace=wrap;html=1;fontSize=17;" vertex="1" parent="1">
          <mxGeometry x="480" y="337" width="270" height="60" as="geometry" />
        </mxCell>
        <mxCell id="Oo_7XJ8R2uxZgiFvvZZN-25" value="QA" style="rounded=1;whiteSpace=wrap;html=1;fontSize=17;" vertex="1" parent="1">
          <mxGeometry x="480" y="410" width="270" height="60" as="geometry" />
        </mxCell>
        <mxCell id="Oo_7XJ8R2uxZgiFvvZZN-26" value="Prod" style="rounded=1;whiteSpace=wrap;html=1;fontSize=17;" vertex="1" parent="1">
          <mxGeometry x="480" y="480" width="270" height="60" as="geometry" />
        </mxCell>
        <mxCell id="Oo_7XJ8R2uxZgiFvvZZN-29" value="" style="shape=flexArrow;endArrow=classic;html=1;fontSize=17;" edge="1" parent="1">
          <mxGeometry width="50" height="50" relative="1" as="geometry">
            <mxPoint x="80" y="430" as="sourcePoint" />
            <mxPoint x="220" y="430" as="targetPoint" />
            <Array as="points" />
          </mxGeometry>
        </mxCell>
        <mxCell id="Oo_7XJ8R2uxZgiFvvZZN-30" value="Kubernets API" style="text;html=1;strokeColor=none;fillColor=none;align=center;verticalAlign=middle;whiteSpace=wrap;rounded=0;fontSize=17;" vertex="1" parent="1">
          <mxGeometry x="277.71" y="490" width="40" height="20" as="geometry" />
        </mxCell>
        <mxCell id="Oo_7XJ8R2uxZgiFvvZZN-31" value="Set Image&amp;nbsp;" style="text;html=1;strokeColor=none;fillColor=none;align=center;verticalAlign=middle;whiteSpace=wrap;rounded=0;fontSize=17;" vertex="1" parent="1">
          <mxGeometry x="119.99999999999997" y="397" width="40" height="20" as="geometry" />
        </mxCell>
        <mxCell id="Oo_7XJ8R2uxZgiFvvZZN-32" value="" style="endArrow=classic;html=1;fontSize=17;" edge="1" parent="1">
          <mxGeometry width="50" height="50" relative="1" as="geometry">
            <mxPoint x="300" y="200" as="sourcePoint" />
            <mxPoint x="300" y="340" as="targetPoint" />
          </mxGeometry>
        </mxCell>
        <mxCell id="Oo_7XJ8R2uxZgiFvvZZN-33" value="PULL IMAGE" style="text;html=1;strokeColor=none;fillColor=none;align=center;verticalAlign=middle;whiteSpace=wrap;rounded=0;fontSize=17;" vertex="1" parent="1">
          <mxGeometry x="310" y="256.25" width="40" height="20" as="geometry" />
        </mxCell>
        <mxCell id="Oo_7XJ8R2uxZgiFvvZZN-35" value="Developers" style="shape=umlActor;verticalLabelPosition=bottom;verticalAlign=top;html=1;outlineConnect=0;fontSize=17;" vertex="1" parent="1">
          <mxGeometry x="50" y="80" width="30" height="60" as="geometry" />
        </mxCell>
        <mxCell id="Oo_7XJ8R2uxZgiFvvZZN-43" value="Deploy" style="text;html=1;strokeColor=none;fillColor=none;align=center;verticalAlign=middle;whiteSpace=wrap;rounded=0;fontSize=17;" vertex="1" parent="1">
          <mxGeometry x="400" y="390" width="40" height="20" as="geometry" />
        </mxCell>
        <mxCell id="Oo_7XJ8R2uxZgiFvvZZN-45" value="" style="rounded=0;whiteSpace=wrap;html=1;" vertex="1" parent="1">
          <mxGeometry x="75" y="635" width="540" height="460" as="geometry" />
        </mxCell>
        <mxCell id="Oo_7XJ8R2uxZgiFvvZZN-46" value="" style="aspect=fixed;html=1;points=[];align=center;image;fontSize=12;image=img/lib/mscae/Docker.svg;" vertex="1" parent="1">
          <mxGeometry x="98.05000000000001" y="650" width="121.95" height="100" as="geometry" />
        </mxCell>
        <mxCell id="Oo_7XJ8R2uxZgiFvvZZN-47" value="wallet.service image" style="rounded=1;whiteSpace=wrap;html=1;fontSize=16;" vertex="1" parent="1">
          <mxGeometry x="90" y="770" width="510" height="60" as="geometry" />
        </mxCell>
        <mxCell id="Oo_7XJ8R2uxZgiFvvZZN-48" value="cash sercvice image" style="rounded=1;whiteSpace=wrap;html=1;fontSize=16;" vertex="1" parent="1">
          <mxGeometry x="90" y="840" width="510" height="60" as="geometry" />
        </mxCell>
        <mxCell id="Oo_7XJ8R2uxZgiFvvZZN-49" value="comand control service image" style="rounded=1;whiteSpace=wrap;html=1;fontSize=16;" vertex="1" parent="1">
          <mxGeometry x="90" y="910" width="510" height="60" as="geometry" />
        </mxCell>
        <mxCell id="Oo_7XJ8R2uxZgiFvvZZN-50" value="reports service image" style="rounded=1;whiteSpace=wrap;html=1;fontSize=16;" vertex="1" parent="1">
          <mxGeometry x="90" y="980" width="510" height="60" as="geometry" />
        </mxCell>
        <mxCell id="Oo_7XJ8R2uxZgiFvvZZN-51" value="" style="rounded=1;whiteSpace=wrap;html=1;" vertex="1" parent="1">
          <mxGeometry x="710" y="635" width="560" height="465" as="geometry" />
        </mxCell>
        <mxCell id="Oo_7XJ8R2uxZgiFvvZZN-52" value="" style="aspect=fixed;html=1;points=[];align=center;image;fontSize=17;image=img/lib/mscae/Kubernetes.svg;" vertex="1" parent="1">
          <mxGeometry x="740" y="650" width="135.41" height="130" as="geometry" />
        </mxCell>
        <mxCell id="Oo_7XJ8R2uxZgiFvvZZN-53" value="Some Cluster" style="rounded=1;whiteSpace=wrap;html=1;fontSize=17;" vertex="1" parent="1">
          <mxGeometry x="890" y="665" width="320" height="60" as="geometry" />
        </mxCell>
        <mxCell id="Oo_7XJ8R2uxZgiFvvZZN-57" style="edgeStyle=orthogonalEdgeStyle;rounded=0;orthogonalLoop=1;jettySize=auto;html=1;entryX=0.5;entryY=0;entryDx=0;entryDy=0;fontSize=17;" edge="1" parent="1" source="Oo_7XJ8R2uxZgiFvvZZN-54" target="Oo_7XJ8R2uxZgiFvvZZN-56">
          <mxGeometry relative="1" as="geometry" />
        </mxCell>
        <mxCell id="Oo_7XJ8R2uxZgiFvvZZN-54" value="Deployment/MapConfig/Sevrice configuration for wallet.service image" style="rounded=1;whiteSpace=wrap;html=1;fontSize=17;" vertex="1" parent="1">
          <mxGeometry x="740" y="795" width="500" height="60" as="geometry" />
        </mxCell>
        <mxCell id="Oo_7XJ8R2uxZgiFvvZZN-56" value="Pod for wallet service" style="rounded=1;whiteSpace=wrap;html=1;fontSize=17;" vertex="1" parent="1">
          <mxGeometry x="740" y="905" width="500" height="95" as="geometry" />
        </mxCell>
        <mxCell id="Oo_7XJ8R2uxZgiFvvZZN-58" value="Create pod" style="text;html=1;strokeColor=none;fillColor=none;align=center;verticalAlign=middle;whiteSpace=wrap;rounded=0;fontSize=17;" vertex="1" parent="1">
          <mxGeometry x="1000" y="875" width="90" height="20" as="geometry" />
        </mxCell>
        <mxCell id="Oo_7XJ8R2uxZgiFvvZZN-61" value="PULL IMAGE" style="text;html=1;strokeColor=none;fillColor=none;align=center;verticalAlign=middle;whiteSpace=wrap;rounded=0;fontSize=17;" vertex="1" parent="1">
          <mxGeometry x="660" y="810" width="40" height="20" as="geometry" />
        </mxCell>
        <mxCell id="Oo_7XJ8R2uxZgiFvvZZN-63" value="" style="shape=flexArrow;endArrow=classic;startArrow=classic;html=1;fontSize=17;exitX=0;exitY=0.5;exitDx=0;exitDy=0;entryX=1;entryY=0.5;entryDx=0;entryDy=0;" edge="1" parent="1" source="Oo_7XJ8R2uxZgiFvvZZN-56" target="Oo_7XJ8R2uxZgiFvvZZN-47">
          <mxGeometry width="100" height="100" relative="1" as="geometry">
            <mxPoint x="730" y="970" as="sourcePoint" />
            <mxPoint x="830" y="870" as="targetPoint" />
          </mxGeometry>
        </mxCell>
        <mxCell id="Oo_7XJ8R2uxZgiFvvZZN-65" value="Container with&lt;br&gt;image from docker" style="rounded=1;whiteSpace=wrap;html=1;fontSize=17;" vertex="1" parent="1">
          <mxGeometry x="1080" y="922.5" width="120" height="60" as="geometry" />
        </mxCell>
      </root>
    </mxGraphModel>
  </diagram>
</mxfile>
